<svg xmlns="http://www.w3.org/2000/svg" xmlns:xlink="http://www.w3.org/1999/xlink"><defs>
    <style>
      .cls-1 {
        fill: #ccc;
        fill-rule: evenodd;
      }
    </style>
  
    <style>
      .cls-1 {
        fill: #95e1d3;
        fill-rule: evenodd;
      }
    </style>
  
    <style>
      .cls-1 {
        fill: #95e1d3;
        fill-rule: evenodd;
      }
    </style>
  
<symbol id="icon-arrow" viewBox="0 0 16 32">
<title>Layer-37-copy</title>
<path d="M8 7c0 1.657-1.343 3-3 3s-3-1.343-3-3c0-1.657 1.343-3 3-3s3 1.343 3 3z"/>
</symbol>
<symbol id="icon-google-plus" viewBox="-13 -17 60 69">
<title>google-plus</title>
<path d="M31.35 8.058v5.666h-2.322v-5.666h-5.805v-2.322h5.806v-5.666h2.322v5.666h5.805v2.322h-5.806zM15.292 2.322c1.955 0.994 3.271 2.991 3.271 5.295 0 0.041-0 0.081-0.001 0.122l0-0.006c-0.145 2.048-1.245 3.811-2.853 4.862l-0.024 0.015c-1.075 0.48-1.823 1.516-1.881 2.733l-0 0.007c0.528 1.27 1.423 2.299 2.552 2.98l0.028 0.016c2.027 1.166 3.371 3.32 3.371 5.788 0 0.169-0.006 0.337-0.019 0.504l0.001-0.022c0 3.46-3.353 7.361-9.558 7.361-5.443 0-10.178-2.601-10.178-6.084 0-3.53 4.333-6.943 9.774-6.943 0.595 0 1.138-0.023 1.7-0.023-0.769-0.651-1.272-1.597-1.332-2.661l-0-0.010c0.021-0.675 0.202-1.304 0.505-1.856l-0.011 0.021c-0.295 0.023-0.597-0.023-0.908-0.023-0.107 0.006-0.233 0.009-0.36 0.009-3.919 0-7.097-3.174-7.104-7.091v-0.001c0-3.808 4.136-7.292 8.529-7.292h9.8l-2.195 2.299h-3.107zM10.812 19.855c-3.762-0.046-7.131 2.253-7.131 4.993 0 2.81 2.717 4.877 6.477 4.877 5.288 0 7.131-1.904 7.131-4.714 0-0 0-0.001 0-0.001 0-0.354-0.044-0.698-0.127-1.026l0.006 0.029c-0.413-1.602-1.876-2.369-3.92-3.762-0.714-0.25-1.537-0.395-2.394-0.395-0.015 0-0.030 0-0.045 0h0.002zM15.039 7.779c-0.241-3.024-2.509-5.453-5.433-5.94l-0.038-0.005c-2.524-0.070-4.217 2.415-3.781 5.666 0.199 3.027 2.422 5.481 5.319 6.031l0.041 0.006c2.524 0.070 4.326-2.508 3.892-5.759z"/>
</symbol>
<symbol id="icon-twitter" viewBox="-13 -17 67 69">
<title>twitter</title>
<path d="M26.811 0.015c0.121-0.006 0.262-0.010 0.404-0.010 2.35 0 4.473 0.977 5.983 2.547l0.003 0.003c1.552-0.258 2.944-0.747 4.212-1.436l-0.070 0.035 1.005-0.554c-0.51 1.537-1.417 2.827-2.602 3.79l-0.015 0.012c-0.257 0.244-0.549 0.454-0.867 0.621l-0.021 0.010v0.015c1.693-0.182 3.241-0.617 4.67-1.27l-0.094 0.038v0.015c-0.765 1.212-1.673 2.248-2.721 3.123l-0.021 0.017c-0.42 0.339-0.842 0.677-1.262 1 0.012 0.28 0.019 0.609 0.019 0.939 0 1.508-0.143 2.982-0.416 4.409l0.023-0.146c-2.019 9.066-7.37 15.223-15.837 17.87-2.009 0.597-4.318 0.941-6.707 0.941-1.675 0-3.31-0.169-4.889-0.491l0.157 0.027c-1.846-0.445-3.43-0.978-4.951-1.631l0.2 0.076c-0.904-0.398-1.655-0.794-2.376-1.235l0.087 0.050c-0.237-0.139-0.473-0.292-0.71-0.431 0.539 0.073 1.163 0.114 1.796 0.114 0.277 0 0.551-0.008 0.824-0.024l-0.038 0.002c0.796-0.123 1.575-0.092 2.309-0.246 1.826-0.36 3.45-0.968 4.934-1.798l-0.084 0.043c0.838-0.395 1.559-0.873 2.2-1.44l-0.010 0.009c-0.864-0.003-1.691-0.16-2.454-0.447l0.049 0.016c-2.432-0.84-4.308-2.73-5.112-5.114l-0.017-0.057c0.433 0.083 0.931 0.131 1.44 0.131 0.773 0 1.519-0.11 2.226-0.314l-0.056 0.014c-1.005-0.139-1.902-0.516-2.659-1.073l0.016 0.011c-2.296-1.372-3.81-3.845-3.81-6.671 0-0.084 0.001-0.168 0.004-0.252l-0 0.012c0.277 0.123 0.553 0.262 0.828 0.385 0.486 0.204 1.055 0.37 1.646 0.471l0.047 0.007c0.218 0.079 0.47 0.124 0.732 0.124 0.132 0 0.261-0.011 0.387-0.034l-0.013 0.002h-0.040c-0.406-0.462-1.070-0.785-1.479-1.293-1.264-1.443-2.036-3.346-2.036-5.429 0-0.673 0.081-1.327 0.232-1.954l-0.012 0.056c0.222-0.803 0.519-1.503 0.892-2.154l-0.024 0.045c0.014 0 0.026 0.015 0.040 0.015 0.216 0.319 0.457 0.597 0.726 0.843l0.004 0.003c0.716 0.862 1.505 1.62 2.371 2.283l0.035 0.026c2.752 2.254 6.078 3.916 9.721 4.741l0.159 0.030c1.084 0.287 2.333 0.46 3.619 0.477l0.011 0c-0.142-0.548-0.224-1.178-0.224-1.827 0-0.703 0.096-1.383 0.275-2.028l-0.013 0.053c0.612-2.453 2.302-4.42 4.525-5.398l0.051-0.020c0.512-0.225 1.112-0.417 1.736-0.544l0.058-0.010c0.326-0.046 0.656-0.077 0.984-0.123z"/>
</symbol>
<symbol id="icon-facebook2" viewBox="-10  -10 52 55">
<title>facebook2</title>
<path d="M19 6h5v-6h-5c-3.86 0-7 3.14-7 7v3h-4v6h4v16h6v-16h5l1-6h-6v-3c0-0.542 0.458-1 1-1z"/>
</symbol>
<symbol id="icon-linkedin2" viewBox="-12 -10 58 62">
<title>linkedin2</title>
<path d="M12 12h5.535v2.837h0.079c0.77-1.381 2.655-2.837 5.464-2.837 5.842 0 6.922 3.637 6.922 8.367v9.633h-5.769v-8.54c0-2.037-0.042-4.657-3.001-4.657-3.005 0-3.463 2.218-3.463 4.509v8.688h-5.767v-18z"/>
<path d="M2 12h6v18h-6v-18z"/>
<path d="M8 7c0 1.657-1.343 3-3 3s-3-1.343-3-3c0-1.657 1.343-3 3-3s3 1.343 3 3z"/>
</symbol>
<symbol id="icon-mobile" viewBox="0 0 32 32">
<title>mobile</title>
<path d="M23 0h-14c-1.65 0-3 1.35-3 3v26c0 1.65 1.35 3 3 3h14c1.65 0 3-1.35 3-3v-26c0-1.65-1.35-3-3-3zM12 1.5h8v1h-8v-1zM16 30c-1.105 0-2-0.895-2-2s0.895-2 2-2 2 0.895 2 2-0.895 2-2 2zM24 24h-16v-20h16v20z"/>
</symbol>
<symbol id="icon-mail2" viewBox="0 0 32 32">
<title>mail2</title>
<path d="M26.667 0h-21.333c-2.934 0-5.334 2.4-5.334 5.334v21.332c0 2.936 2.4 5.334 5.334 5.334h21.333c2.934 0 5.333-2.398 5.333-5.334v-21.332c0-2.934-2.399-5.334-5.333-5.334zM26.667 4c0.25 0 0.486 0.073 0.688 0.198l-11.355 9.388-11.355-9.387c0.202-0.125 0.439-0.198 0.689-0.198h21.333zM5.334 28c-0.060 0-0.119-0.005-0.178-0.013l7.051-9.78-0.914-0.914-7.293 7.293v-19.098l12 14.512 12-14.512v19.098l-7.293-7.293-0.914 0.914 7.051 9.78c-0.058 0.008-0.117 0.013-0.177 0.013h-21.333z"/>
</symbol>
<symbol id="icon-circle-right" viewBox="0 0 32 32">
<title>circle-right</title>
<path d="M16 0c-8.837 0-16 7.163-16 16s7.163 16 16 16 16-7.163 16-16-7.163-16-16-16zM16 29c-7.18 0-13-5.82-13-13s5.82-13 13-13 13 5.82 13 13-5.82 13-13 13z"/>
<path d="M11.086 22.086l2.829 2.829 8.914-8.914-8.914-8.914-2.828 2.828 6.086 6.086z"/>
</symbol>
<symbol id="icon-circle-left" viewBox="0 0 32 32">
<title>circle-left</title>
<path d="M16 32c8.837 0 16-7.163 16-16s-7.163-16-16-16-16 7.163-16 16 7.163 16 16 16zM16 3c7.18 0 13 5.82 13 13s-5.82 13-13 13-13-5.82-13-13 5.82-13 13-13z"/>
<path d="M20.914 9.914l-2.829-2.829-8.914 8.914 8.914 8.914 2.828-2.828-6.086-6.086z"/>
</symbol>
</defs><symbol id="ARROW_LEFT" viewBox="0 0 25 23">
  <metadata><?xpacket begin="﻿" id="W5M0MpCehiHzreSzNTczkc9d"?>
<x:xmpmeta xmlns:x="adobe:ns:meta/" x:xmptk="Adobe XMP Core 5.6-c142 79.160924, 2017/07/13-01:06:39        ">
   <rdf:RDF xmlns:rdf="http://www.w3.org/1999/02/22-rdf-syntax-ns#">
      <rdf:Description rdf:about=""/>
   </rdf:RDF>
</x:xmpmeta>
                                                                                                    
                                                                                                    
                                                                                                    
                                                                                                    
                                                                                                    
                                                                                                    
                                                                                                    
                                                                                                    
                                                                                                    
                                                                                                    
                                                                                                    
                                                                                                    
                                                                                                    
                                                                                                    
                                                                                                    
                                                                                                    
                                                                                                    
                                                                                                    
                                                                                                    
                                                                                                    
                           
<?xpacket end="w"?></metadata>

  <path id="ARROW_DOWN_copy_2" data-name="ARROW / DOWN copy 2" class="cls-1" d="M394.477,4572.86l-7.858-7.86,7.962-7.96h0a1.5,1.5,0,0,0-2.121-2.12h0l-9,9h0A1.481,1.481,0,0,0,383,4565h0v0.01a1.475,1.475,0,0,0,.459,1.07h0l9,9h0A1.5,1.5,0,1,0,394.477,4572.86Z" transform="translate(-383 -4554.5)"/>
</symbol><symbol id="BULLSEYE" viewBox="0 0 32 32">
  <metadata><?xpacket begin="﻿" id="W5M0MpCehiHzreSzNTczkc9d"?>
<x:xmpmeta xmlns:x="adobe:ns:meta/" x:xmptk="Adobe XMP Core 5.6-c142 79.160924, 2017/07/13-01:06:39        ">
   <rdf:RDF xmlns:rdf="http://www.w3.org/1999/02/22-rdf-syntax-ns#">
      <rdf:Description rdf:about=""/>
   </rdf:RDF>
</x:xmpmeta>
                                                                                                    
                                                                                                    
                                                                                                    
                                                                                                    
                                                                                                    
                                                                                                    
                                                                                                    
                                                                                                    
                                                                                                    
                                                                                                    
                                                                                                    
                                                                                                    
                                                                                                    
                                                                                                    
                                                                                                    
                                                                                                    
                                                                                                    
                                                                                                    
                                                                                                    
                                                                                                    
                           
<?xpacket end="w"?></metadata>

  <path id="BULLSEYE" class="cls-1" d="M991,4286a16,16,0,1,1,16-16A16,16,0,0,1,991,4286Zm0-29a13,13,0,1,0,13,13A13,13,0,0,0,991,4257Zm0,22.5a9.5,9.5,0,1,1,9.5-9.5A9.5,9.5,0,0,1,991,4279.5Zm0-16a6.5,6.5,0,1,0,6.5,6.5A6.5,6.5,0,0,0,991,4263.5Zm0,9.5a3,3,0,1,1,3-3A3,3,0,0,1,991,4273Z" transform="translate(-975 -4254)"/>
</symbol><symbol id="EQUALIZER" viewBox="0 0 28 32">
  <metadata><?xpacket begin="﻿" id="W5M0MpCehiHzreSzNTczkc9d"?>
<x:xmpmeta xmlns:x="adobe:ns:meta/" x:xmptk="Adobe XMP Core 5.6-c142 79.160924, 2017/07/13-01:06:39        ">
   <rdf:RDF xmlns:rdf="http://www.w3.org/1999/02/22-rdf-syntax-ns#">
      <rdf:Description rdf:about=""/>
   </rdf:RDF>
</x:xmpmeta>
                                                                                                    
                                                                                                    
                                                                                                    
                                                                                                    
                                                                                                    
                                                                                                    
                                                                                                    
                                                                                                    
                                                                                                    
                                                                                                    
                                                                                                    
                                                                                                    
                                                                                                    
                                                                                                    
                                                                                                    
                                                                                                    
                                                                                                    
                                                                                                    
                                                                                                    
                                                                                                    
                           
<?xpacket end="w"?></metadata>

  <path id="EQUALIZER" class="cls-1" d="M1002.5,4200.5h-3a1.5,1.5,0,0,1-1.5-1.5v-6a1.5,1.5,0,0,1,1.5-1.5h3a1.5,1.5,0,0,1,1.5,1.5v6A1.5,1.5,0,0,1,1002.5,4200.5Zm-3-15a1.5,1.5,0,0,1,3,0v4.5h-3v-4.5Zm-8,23h-3a1.5,1.5,0,0,1-1.5-1.5v-6a1.5,1.5,0,0,1,1.5-1.5h3a1.5,1.5,0,0,1,1.5,1.5v6A1.5,1.5,0,0,1,991.5,4208.5Zm-3-23a1.5,1.5,0,0,1,3,0V4198h-3v-12.5Zm-8,19h-3a1.5,1.5,0,0,1-1.5-1.5v-6a1.5,1.5,0,0,1,1.5-1.5h3a1.5,1.5,0,0,1,1.5,1.5v6A1.5,1.5,0,0,1,980.5,4204.5Zm-3-19a1.5,1.5,0,0,1,3,0v8.5h-3v-8.5Zm3,29a1.5,1.5,0,0,1-3,0V4206h3v8.5Zm11,0a1.5,1.5,0,0,1-3,0V4210h3v4.5Zm11,0a1.5,1.5,0,0,1-3,0V4202h3v12.5Z" transform="translate(-976 -4184)"/>
</symbol><symbol id="sprite">

</symbol></svg>